<svg width="42" height="33" viewBox="0 0 42 33" fill="none" xmlns="http://www.w3.org/2000/svg">
<path d="M21 6.71114C20.2271 6.72503 19.46 6.86629 18.722 7.13058C19.0634 7.82126 19.2452 8.60109 19.25 9.39559C19.25 10.0125 19.1443 10.6234 18.9391 11.1934C18.7339 11.7633 18.4332 12.2812 18.054 12.7174C17.6748 13.1537 17.2247 13.4997 16.7293 13.7358C16.2338 13.9719 15.7029 14.0934 15.1666 14.0934C14.476 14.0879 13.7982 13.8788 13.1979 13.486C12.7242 15.3759 12.7794 17.3893 13.3557 19.241C13.9319 21.0928 14.9999 22.689 16.4085 23.8036C17.8171 24.9182 19.4948 25.4947 21.204 25.4514C22.9131 25.408 24.5671 24.7471 25.9317 23.5622C27.2962 22.3773 28.3021 20.7285 28.8069 18.8494C29.3117 16.9702 29.2898 14.956 28.7442 13.092C28.1987 11.228 27.1572 9.60866 25.7673 8.46346C24.3774 7.31826 22.7095 6.7052 21 6.71114ZM41.7462 14.8819C37.7919 6.00563 29.9636 0 21 0C12.0363 0 4.20579 6.00982 0.25371 14.8828C0.0869073 15.2624 0 15.6818 0 16.1072C0 16.5325 0.0869073 16.9519 0.25371 17.3315C4.20798 26.2078 12.0363 32.2135 21 32.2135C29.9636 32.2135 37.7941 26.2036 41.7462 17.3307C41.913 16.9511 41.9999 16.5317 41.9999 16.1063C41.9999 15.681 41.913 15.2616 41.7462 14.8819ZM21 28.1868C13.8067 28.1868 7.21215 23.5729 3.6509 16.1067C7.21215 8.64059 13.806 4.02668 21 4.02668C28.1939 4.02668 34.7878 8.64059 38.349 16.1067C34.7885 23.5729 28.1939 28.1868 21 28.1868Z" fill="black"/>
</svg>
