<svg width="49" height="51" viewBox="0 0 49 51" fill="none" xmlns="http://www.w3.org/2000/svg">
<path d="M35.9333 16.0303H26.1333V9.28069H44.1C44.7496 9.27994 45.3723 9.01303 45.8316 8.53852C46.2909 8.06401 46.5493 7.42065 46.55 6.74959V0H43.2833V5.90589H25.3167C24.6671 5.90665 24.0444 6.17356 23.5851 6.64807C23.1258 7.12258 22.8674 7.76593 22.8667 8.43699V16.0303H13.0667C9.60237 16.0343 6.28109 17.4579 3.83147 19.9886C1.38184 22.5193 0.00391774 25.9505 0 29.5295V40.1762C0.00278295 42.722 0.982903 45.1626 2.72533 46.9627C4.46777 48.7628 6.83021 49.7754 9.29438 49.7783H9.47813C10.8411 49.7801 12.1877 49.4715 13.422 48.8743C14.6563 48.2771 15.7479 47.4061 16.6192 46.3233L21.999 39.6539H26.9631L32.3394 46.8743C33.5229 48.4636 35.1583 49.6301 37.0162 50.2103C38.874 50.7906 40.8611 50.7554 42.6986 50.1097C44.5361 49.464 46.1319 48.2402 47.262 46.61C48.3921 44.9798 48.9999 43.0251 49 41.0199V29.5295C48.9961 25.9505 47.6182 22.5193 45.1685 19.9886C42.7189 17.4579 39.3976 16.0343 35.9333 16.0303ZM45.7333 41.0199C45.7333 42.3204 45.3392 43.5882 44.6062 44.6456C43.8733 45.7029 42.8383 46.4966 41.6465 46.9153C40.4547 47.3341 39.166 47.3568 37.961 46.9804C36.7561 46.604 35.6954 45.8474 34.9279 44.8166L28.5709 36.2791H20.4683L14.1091 44.1628C13.5442 44.865 12.8363 45.4298 12.0359 45.8171C11.2355 46.2044 10.3623 46.4046 9.47844 46.4035H9.29469C7.69653 46.4017 6.16432 45.7451 5.03422 44.5776C3.90413 43.4102 3.26845 41.8273 3.26667 40.1762V29.5295C3.26958 26.8452 4.30302 24.2718 6.14024 22.3738C7.97747 20.4757 10.4684 19.4081 13.0667 19.4051H35.9333C38.5316 19.4081 41.0225 20.4757 42.8598 22.3738C44.697 24.2718 45.7304 26.8452 45.7333 29.5295V41.0199Z" fill="black"/>
<path d="M38.3833 24.4673H35.1166V27.8421H38.3833V24.4673Z" fill="black"/>
<path d="M38.3833 32.9043H35.1166V36.2791H38.3833V32.9043Z" fill="black"/>
<path d="M34.2999 28.6858H31.0333V32.0606H34.2999V28.6858Z" fill="black"/>
<path d="M42.4667 28.6858H39.2V32.0606H42.4667V28.6858Z" fill="black"/>
<path d="M13.8833 24.4673H10.6167V28.6858H6.53333V32.0606H10.6167V36.2791H13.8833V32.0606H17.9667V28.6858H13.8833V24.4673Z" fill="black"/>
</svg>
