<svg width="64" height="34" viewBox="0 0 64 34" fill="none" xmlns="http://www.w3.org/2000/svg">
<path d="M58 10.0092H63.8V23.3547H58V10.0092Z" fill="black"/>
<path d="M0 10.0092H5.8V23.3547H0V10.0092Z" fill="black"/>
<path d="M49.3 6.67279C49.3 4.90306 48.6889 3.20581 47.6012 1.95441C46.5135 0.703024 45.0383 0 43.5 0H20.3C18.7618 0 17.2865 0.703024 16.1988 1.95441C15.1111 3.20581 14.5 4.90306 14.5 6.67279C12.9618 6.67279 11.4865 7.37581 10.3988 8.6272C9.31108 9.8786 8.70001 11.5758 8.70001 13.3456V20.0184C8.70001 21.7881 9.31108 23.4853 10.3988 24.7367C11.4865 25.9881 12.9618 26.6912 14.5 26.6912C14.5 28.4609 15.1111 30.1581 16.1988 31.4095C17.2865 32.6609 18.7618 33.3639 20.3 33.3639H23.2802L27.9272 24.1038C28.3298 23.3014 28.9089 22.6352 29.6063 22.172C30.3037 21.7088 31.0948 21.4649 31.9 21.4649C32.7053 21.4649 33.4963 21.7088 34.1937 22.172C34.8911 22.6352 35.4702 23.3014 35.8728 24.1038L40.5198 33.3639H43.5C45.0383 33.3639 46.5135 32.6609 47.6012 31.4095C48.6889 30.1581 49.3 28.4609 49.3 26.6912C50.8383 26.6912 52.3135 25.9881 53.4012 24.7367C54.4889 23.4853 55.1 21.7881 55.1 20.0184V13.3456C55.1 11.5758 54.4889 9.8786 53.4012 8.6272C52.3135 7.37581 50.8383 6.67279 49.3 6.67279ZM46.4 16.682H17.4V10.0092H46.4V16.682Z" fill="black"/>
</svg>
