<svg width="47" height="45" viewBox="0 0 47 45" fill="none" xmlns="http://www.w3.org/2000/svg">
<path d="M46.259 21.5192L40.9174 16.7117L42.5121 15.4087C43.2258 14.8223 43.8301 14.1141 44.2969 13.3169C46.0608 10.2609 45.5475 6.50903 43.0193 3.98095C40.4911 1.45287 36.7393 0.939579 33.6835 2.7036C32.8864 3.17039 32.1783 3.77463 31.5918 4.48832L30.2886 6.08302L25.4812 0.741492L25.4249 0.682105C24.9871 0.245306 24.3939 0 23.7755 0C23.157 0 22.5638 0.245306 22.126 0.682105L15.7499 7.05868L15.8656 9.36223L19.0835 11.992C19.5133 12.3431 19.8778 12.7671 20.1604 13.2447C21.2108 15.0645 20.8962 17.3076 19.3774 18.8264C17.8586 20.3451 15.6159 20.6597 13.7958 19.6096C13.3178 19.3268 12.8934 18.962 12.5419 18.532L9.91305 15.3148L7.6095 15.1993L0.683279 22.1255C0.466654 22.3421 0.294816 22.5993 0.177579 22.8823C0.0603415 23.1653 0 23.4687 0 23.775C0 24.0814 0.0603415 24.3847 0.177579 24.6677C0.294816 24.9508 0.466654 25.2079 0.683279 25.4245L17.7274 42.4688C18.4494 43.1909 19.3066 43.7636 20.25 44.1544C21.1934 44.5452 22.2045 44.7463 23.2257 44.7463C24.2468 44.7463 25.2579 44.5452 26.2013 44.1544C27.1447 43.7636 28.0019 43.1909 28.724 42.4688L46.318 24.8744C46.7547 24.4366 47 23.8434 47 23.225C47 22.6066 46.7547 22.0134 46.318 21.5756L46.259 21.5192ZM26.5246 40.2695C26.0914 40.7028 25.5771 41.0464 25.011 41.2809C24.445 41.5154 23.8383 41.636 23.2256 41.636C22.6129 41.636 22.0062 41.5154 21.4402 41.2809C20.8742 41.0464 20.3598 40.7028 19.9266 40.2695L3.4319 23.7747L8.59303 18.6141L10.1394 20.5068L10.1491 20.5183C10.7356 21.2321 11.4437 21.8364 12.2409 22.3032C15.2969 24.0672 19.0486 23.5538 21.5768 21.0256C24.105 18.4974 24.6182 14.7458 22.8543 11.6899C22.3875 10.8927 21.7832 10.1845 21.0695 9.59813L19.1653 8.04201L23.7456 3.46173L29.1903 9.51133L31.5504 9.45506L33.9864 6.47404C34.3375 6.04436 34.7615 5.67987 35.239 5.3973C37.0588 4.3469 39.3019 4.66162 40.8206 6.18031C42.3394 7.69901 42.6542 9.94182 41.6038 11.7619C41.3212 12.2395 40.9567 12.6636 40.5269 13.0147L37.5459 15.4505L37.4895 17.8106L43.5393 23.2554L26.5246 40.2695Z" fill="black"/>
</svg>
