<svg width="57" height="24" viewBox="0 0 57 24" fill="none" xmlns="http://www.w3.org/2000/svg">
<path fill-rule="evenodd" clip-rule="evenodd" d="M42.2222 12.6667H14.7778V20.042C14.7778 21.8045 13.36 23.2222 11.6111 23.2222C9.85002 23.2222 8.44444 21.7984 8.44444 20.042V18.8199C8.11429 18.9365 7.759 19 7.38889 19C5.62779 19 4.22222 17.5807 4.22222 15.8298V12.6667H0V10.5556H4.22222V7.39243C4.22222 5.63918 5.63999 4.22222 7.38889 4.22222C7.75978 4.22222 8.1149 4.28517 8.44444 4.40092V3.18026C8.44444 1.4177 9.86221 0 11.6111 0C13.3722 0 14.7778 1.42385 14.7778 3.18026V10.5556H42.2222V3.18026C42.2222 1.4177 43.64 0 45.3889 0C47.15 0 48.5556 1.42385 48.5556 3.18026V4.40236C48.8857 4.28568 49.241 4.22222 49.6111 4.22222C51.3722 4.22222 52.7778 5.64157 52.7778 7.39243V10.5556H57V12.6667H52.7778V15.8298C52.7778 17.583 51.36 19 49.6111 19C49.2402 19 48.8851 18.937 48.5556 18.8213V20.042C48.5556 21.8045 47.1378 23.2222 45.3889 23.2222C43.6278 23.2222 42.2222 21.7984 42.2222 20.042V12.6667ZM49.6111 6.33333C49.0281 6.33333 48.5556 6.78689 48.5556 7.38403V15.8382C48.5556 16.4185 49.0452 16.8889 49.6111 16.8889C50.1941 16.8889 50.6667 16.4353 50.6667 15.8382V7.38403C50.6667 6.80375 50.177 6.33333 49.6111 6.33333ZM7.38889 6.33333C6.80592 6.33333 6.33333 6.78689 6.33333 7.38403V15.8382C6.33333 16.4185 6.82297 16.8889 7.38889 16.8889C7.97186 16.8889 8.44444 16.4353 8.44444 15.8382V7.38403C8.44444 6.80375 7.95481 6.33333 7.38889 6.33333ZM45.3889 2.11111C44.8059 2.11111 44.3333 2.58078 44.3333 3.18707V20.0351C44.3333 20.6294 44.823 21.1111 45.3889 21.1111C45.9719 21.1111 46.4444 20.6414 46.4444 20.0351V3.18707C46.4444 2.59283 45.9548 2.11111 45.3889 2.11111ZM11.6111 2.11111C11.0281 2.11111 10.5556 2.58078 10.5556 3.18707V20.0351C10.5556 20.6294 11.0452 21.1111 11.6111 21.1111C12.1941 21.1111 12.6667 20.6414 12.6667 20.0351V3.18707C12.6667 2.59283 12.177 2.11111 11.6111 2.11111Z" fill="black"/>
</svg>
